ply
format ascii 1.0
comment VCGLIB generated
comment TextureFile chest.jpg
element vertex 152
property float x
property float y
property float z
property float nx
property float ny
property float nz
property float texture_u
property float texture_v
element face 134
property list uchar int vertex_indices
end_header
-113.9463 -15.37016 85.64484 -0.003953256 0.7036837 0.7105024 -0.0007034231 0.9962113
-102.7073 -140.2304 77.26149 0 -0.06699101 0.9977536 -0.0007034231 0.4738285
116.5968 -15.37016 85.64484 0 -0.066991 0.9977536 0.4327725 0.9962113
105.3578 -140.2304 77.26149 0 -0.06699101 0.9977536 0.4327725 0.4738285
116.5968 -15.37016 85.64484 0.724171 0.6896025 0.004983406 -0.0007034231 0.9962113
105.3578 -140.2304 77.26149 0.9959733 -0.08965004 0 -0.0007034231 0.4738285
116.5968 -15.37016 -86.32143 0.9959733 -0.08965004 0 0.4327725 0.9962113
105.3578 -140.2304 -77.93808 0.6885831 -0.7251575 0 0.4327725 0.4738285
116.5968 -15.37016 -86.32143 0.00436378 0.7031476 -0.7110305 -0.0007034231 0.9962113
105.3578 -140.2304 -77.93808 0 -0.06699107 -0.9977536 -0.0007034231 0.4738285
-113.9463 -15.37016 -86.32143 0 -0.06699105 -0.9977536 0.4327725 0.9962113
-102.7073 -140.2304 -77.93808 0 -0.06699107 -0.9977536 0.4327725 0.4738285
-113.9463 -15.37016 -86.32143 -0.723708 0.6900964 -0.003709086 -0.0007034231 0.9962113
-102.7073 -140.2304 -77.93808 -0.6885832 -0.7251574 0 -0.0007034231 0.4738285
-113.9463 -15.37016 85.64484 -0.9959733 -0.08965 0 0.4327725 0.9962113
-102.7073 -140.2304 77.26149 -0.9959733 -0.08964998 0 0.4327725 0.4738285
-102.7073 -140.2304 77.26149 0 -1 0 -0.0007034231 0.9962113
105.3578 -140.2304 77.26149 0 -1 0 0.4327725 0.9962113
-97.60098 -15.21429 -71.3353 -0.004680161 0.999975 -0.005295957 -0.0007034231 0.9962113
-97.60098 -15.21429 71.6647 -0.004643398 0.9999729 0.005720003 -0.0007034231 0.9962113
106.399 -15.21429 -71.3353 0.008238972 0.9999546 -0.004777187 -0.0007034231 0.9962113
105.399 -15.21429 72.6647 0.007101421 0.9999576 0.00586826 -0.0007034231 0.9962113
-113.8301 99.05013 40.97073 -1 6.914318e-07 -6.225677e-07 0.4913075 0.2441553
-113.83 121.8401 5.007919 -1 5.257587e-07 -1.433484e-07 0.4578395 0.3749794
-113.8301 41.73318 -22.68621 -1 2.506551e-07 -2.256907e-07 0.248121 0.2442063
117.83 99.05014 40.97073 1 -2.765728e-07 2.490272e-07 0.4913079 0.2441553
117.83 41.73319 -22.68621 1 -3.29505e-07 2.966877e-07 0.248121 0.2442064
117.83 121.84 5.007919 1 -1.7518e-07 -4.425736e-08 0.4578395 0.3749794
-113.8301 99.05013 40.97073 4.281183e-08 0.8446759 0.5352782 0.2536167 0.5052592
117.83 99.05014 40.97073 -5.56364e-08 0.8446761 0.5352777 0.2536167 0.9692861
117.83 121.84 5.007919 -4.728401e-08 0.9560171 0.2933111 0.3364538 0.9692861
-113.83 121.8401 5.007919 6.299993e-08 0.956017 0.2933111 0.3364538 0.5052592
-113.83 123.1654 -38.37543 -1 3.375701e-07 2.932519e-07 0.3681783 0.4707629
117.83 123.1654 -38.37545 1 1.639948e-07 8.511861e-07 0.3681783 0.4707631
-113.83 123.1654 -38.37543 -1.148898e-07 0.9746369 -0.2237924 0.419291 0.5052592
117.83 123.1654 -38.37545 -7.889159e-08 0.974637 -0.2237917 0.419291 0.9692861
-113.8301 102.671 -77.55492 -1 6.914323e-08 -6.225687e-08 0.2463469 0.5058409
117.8301 102.6711 -77.55499 1 -8.297186e-07 7.470811e-07 0.2463469 0.5058413
117.8301 102.6711 -77.55499 -1.333492e-07 0.7431448 -0.6691307 0.5021282 0.9692861
-113.8301 102.671 -77.55492 -3.235135e-07 0.7431448 -0.6691307 0.5021282 0.5052592
-113.83 65.84842 -102.0324 -1 -2.563598e-07 -3.663739e-07 0.1249912 0.4708138
117.83 65.84843 -102.0324 1 -8.293811e-07 -2.520691e-07 0.1249912 0.4708138
-113.83 65.84842 -102.0324 -1.307247e-07 0.324444 -0.9459049 0.5849654 0.5052592
117.83 65.84843 -102.0324 -1.150485e-07 0.3244431 -0.9459052 0.5849654 0.9692861
-113.83 22.56421 -105.2491 -1 1.975197e-07 -5.078941e-07 0.0366282 0.3750678
117.83 22.5642 -105.2491 1 2.570367e-08 1.788464e-07 0.03662825 0.3750678
117.83 22.5642 -105.2491 -4.11409e-08 -0.1917734 -0.9814392 0.6678025 0.9692861
-113.83 22.56421 -105.2491 5.240565e-08 -0.1917731 -0.9814393 0.6678025 0.5052592
-113.8301 -15.58381 -86.34315 -1 6.914311e-07 -6.225675e-07 0.004934203 0.2442572
117.83 -15.5838 -86.34316 1 -2.765727e-07 2.490272e-07 0.004934253 0.2442573
-113.8301 -15.58381 -86.34315 2.632395e-08 -0.4440532 -0.8960004 0.7506394 0.5052592
117.83 -15.5838 -86.34316 0 -0.4440531 -0.8960004 0.7506394 0.9692861
-96.51596 93.71897 -69.49445 1 -4.064755e-07 3.659922e-07 0.2466075 0.4674055
-96.51596 111.1499 -36.17145 1 -5.073444e-07 2.254469e-07 0.3502276 0.4375712
-96.516 41.89001 -22.82742 1 -4.75669e-07 4.282941e-07 0.2481164 0.2448797
100.5159 93.71897 -69.49445 -1 -1.625904e-07 1.463965e-07 0.2466075 0.4674055
100.516 41.88999 -22.8274 -1 3.76232e-08 -3.387612e-08 0.2481164 0.2448795
100.516 111.1499 -36.17145 -1 2.480061e-07 1.437409e-07 0.3502276 0.4375712
-96.51596 93.71897 -69.49445 0 -0.8860938 0.4635061 0.005105185 0.5052592
100.5159 93.71897 -69.49445 0 -0.8860937 0.4635061 0.005105185 0.9692861
-96.51596 111.1499 -36.17145 1.697738e-08 -0.9746369 0.2237923 0.08794235 0.5052592
100.516 111.1499 -36.17145 0 -0.9746369 0.2237923 0.08794235 0.9692861
-96.51597 110.0226 0.7270584 1 -5.840041e-07 3.936472e-07 0.4264866 0.356105
100.516 110.0226 0.7270508 -1 6.882738e-08 -1.990873e-07 0.4264866 0.356105
100.516 110.0226 0.7270508 -1.269108e-08 -0.956017 -0.2933114 0.1707795 0.9692861
-96.51597 110.0226 0.7270584 2.551353e-08 -0.956017 -0.2933115 0.1707795 0.5052592
-96.516 90.63931 31.31418 1 -6.503608e-07 5.855874e-07 0.4549519 0.2448366
100.516 90.63929 31.3142 -1 0 0 0.454952 0.2448364
-96.516 90.63931 31.31418 6.634743e-09 -0.8446759 -0.5352781 0.2536167 0.5052592
100.516 90.63929 31.3142 -3.421798e-08 -0.8446758 -0.5352783 0.2536167 0.9692861
-96.516 -6.859314 -76.96904 1 -6.503609e-07 5.855874e-07 0.04128075 0.2449235
-96.51597 25.58636 -93.04893 1 -4.525358e-07 5.396575e-07 0.0682371 0.3561804
100.516 -6.859329 -76.96901 -1 0 0 0.0412808 0.2449233
100.516 25.58637 -93.04894 -1 2.051911e-07 -4.764004e-08 0.06823704 0.3561804
-96.516 -6.859314 -76.96904 3.330903e-08 0.4440528 0.8960006 0.7506394 0.5052592
100.516 -6.859329 -76.96901 -1.043894e-07 0.4440535 0.8960003 0.7506394 0.9692861
100.516 25.58637 -93.04894 -3.987797e-08 0.1917735 0.9814392 0.8334766 0.9692861
-96.51597 25.58636 -93.04893 6.813024e-08 0.1917735 0.9814392 0.8334766 0.5052592
-96.51596 62.40057 -90.31306 1 -2.772437e-07 4.809993e-07 0.143392 0.4376146
100.516 62.40057 -90.31306 -1 -1.170299e-07 -2.616725e-07 0.143392 0.4376146
-96.51596 62.40057 -90.31306 3.652015e-08 -0.3244438 0.945905 0.9163139 0.5052592
100.516 62.40057 -90.31306 0 -0.3244439 0.9459049 0.9163139 0.9692861
100.5159 93.71897 -69.49445 0 -0.5535892 0.8327899 0.9991511 0.9692861
-96.51596 93.71897 -69.49445 0 -0.5535892 0.8327898 0.9991511 0.5052592
-113.8301 99.05013 40.97073 0.01218947 -0.7430896 0.6690809 0 1
-113.8301 -15.58381 -86.34315 0.01218947 -0.7430896 0.6690809 0 1
-96.516 -6.859314 -76.96904 0.01218947 -0.7430896 0.6690809 0 1
-96.516 -6.859314 -76.96904 0.0005824168 0.7314787 -0.6818641 0.005105185 0.9692861
-96.516 90.63931 31.31418 0.1462179 0.8607635 -0.4875516 0.005105185 0.9692861
-113.8301 99.05013 40.97073 0.05321277 -0.7037925 0.7084098 0.005105185 0.9692861
117.83 -15.5838 -86.34316 -1.889242e-07 -0.7320186 0.6812847 0.005105185 0.9692861
-113.8301 -15.58381 -86.34315 -6.943727e-08 0.7320157 -0.6812878 0.005105185 0.9692861
100.516 -6.859329 -76.96901 -0.0005074553 -0.7324854 0.6807826 0.005105185 0.9692861
100.516 -6.859329 -76.96901 -0.01218644 -0.7430897 0.6690809 0 1
117.83 -15.5838 -86.34316 -0.01218644 -0.7430896 0.6690809 0 1
117.83 99.05014 40.97073 -0.01218644 -0.7430897 0.6690809 0 1
117.83 99.05014 40.97073 -0.007489892 -0.7473581 0.6643793 0.005105185 0.9692861
100.516 90.63929 31.3142 -0.005708905 -0.7489648 0.6625852 0.005105185 0.9692861
106.1562 -15.1314 72.38149 0 0.05317734 -0.9985851 0.4301222 0.9978651
-87.86967 -131.3263 66.1938 0 0.05317734 -0.9985851 0.0008885898 0.50723
-97.5057 -15.1314 72.38149 0 0.05317734 -0.9985851 0.0008885898 0.9978651
90.52013 -131.3263 66.1938 0 0.05317734 -0.9985851 0.4301222 0.50723
105.9562 -15.14925 -71.3081 -0.991191 0.1324389 0.0006276887 0.4301222 0.9978651
90.52013 -131.3263 66.1938 -0.9911687 0.1326048 0.0007703501 0.0008885898 0.50723
106.1562 -15.1314 72.38149 -0.9910756 0.1332937 0.00136288 0.0008885898 0.9978651
90.52013 -131.3263 -66.87041 -0.6667042 0.7453224 0 0.4301222 0.50723
-97.5057 -15.14925 -71.3081 0 0.03816982 0.9992713 0.4301222 0.9978651
90.52013 -131.3263 -66.87041 0 0.03816982 0.9992713 0.0008885898 0.50723
105.9562 -15.14925 -71.3081 0 0.03816982 0.9992713 0.0008885898 0.9978651
-87.86967 -131.3263 -66.87041 0 0.03816982 0.9992713 0.4301222 0.50723
-97.5057 -15.1314 72.38149 0.9965785 0.08265175 -4.717716e-06 0.4301222 0.9978651
-87.86967 -131.3263 -66.87041 0.685317 0.7282449 -4.0037e-06 0.0008885898 0.50723
-97.5057 -15.14925 -71.3081 0.9965779 0.08265836 -1.027322e-05 0.0008885898 0.9978651
-87.86967 -131.3263 66.1938 0.9965789 0.08264613 0 0.4301222 0.50723
90.52013 -131.3263 66.1938 0 1 0 0.4301222 0.9978651
-87.86967 -131.3263 66.1938 0 1 0 0.0008885898 0.9978651
107.549 -44 78.12185 0.04230366 0.9983416 0.03904714 0.5050189 0.4941399
107.549 -44 46.92185 0.07124705 0.9974587 0 0.5050189 0.4460672
65.54901 -41 46.92185 0.0160117 0.9996045 -0.02312039 0.6032204 0.4460672
65.54901 -44 78.12185 0 0.9954091 0.0957124 0.6032204 0.4941399
11.54901 -54 57.92185 0.1354657 0.9808194 -0.1401517 0.7014215 0.4460672
23.54901 -44 78.12185 -0.06962994 0.9705027 -0.2308163 0.7014215 0.4941399
-10.45099 -47.99999 46.92185 -0.06229351 0.982815 0.173765 0.7996227 0.4460672
-18.45099 -44 78.12185 0 0.9918817 -0.1271642 0.7996227 0.4941399
-73.45099 -60 48.92185 0.2276293 0.9658217 -0.1239898 0.8978241 0.4460672
-60.45099 -44 78.12185 0.009283789 0.9427821 -0.3332804 0.8978241 0.4941399
-102.451 -44 46.92185 0.2572058 0.965257 -0.04608727 0.9960253 0.4460672
-102.451 -44 78.12185 0 1 0 0.9960253 0.4941399
107.549 -44 15.72185 -0.1485076 0.9816149 -0.1199069 0.5050189 0.397994
64.54901 -51 15.72185 0.1644076 0.9632142 -0.2125764 0.6032204 0.397994
23.54901 -32 15.72185 0.1340968 0.9705654 0.2000522 0.7014215 0.397994
-15.45099 -26 15.72185 -0.1986854 0.9718421 0.1266769 0.7996227 0.397994
-55.45099 -53 15.72185 -0.1292685 0.9907532 0.04120389 0.8978241 0.397994
-102.451 -44 15.72185 0.1880723 0.9821552 0 0.9960253 0.397994
107.549 -44 -15.47815 -0.3665244 0.9304084 0 0.5050189 0.3499207
74.54901 -56.99999 -15.47815 0.02859179 0.9992808 -0.02490776 0.6032204 0.3499207
30.54901 -26 -15.47815 0.2389653 0.9645819 -0.1117022 0.7014215 0.3499207
-18.45099 -38 -15.47815 -0.22803 0.9691595 -0.09344701 0.7996227 0.3499207
-64.45099 -61 -15.47815 0.02807079 0.9856691 0.1663384 0.8978241 0.3499207
-102.451 -44 -15.47815 0.1814938 0.979335 0.08923663 0.9960253 0.3499207
107.549 -44 -46.67815 -0.1757418 0.979304 0.1003924 0.5050189 0.3018477
62.54901 -52 -46.67815 0.081616 0.9794138 0.1846282 0.6032204 0.3018477
16.54901 -39 -46.67815 0.05887554 0.9829359 -0.1742719 0.7014215 0.3018477
-21.45099 -41 -47.67815 0.01584752 0.9952788 -0.09575547 0.7996227 0.3018477
-60.45099 -38 -46.67815 -0.03946383 0.9930752 0.1106536 0.8978241 0.3018477
-102.451 -44 -46.67815 -0.1414214 0.9899495 0 0.9960253 0.3018477
107.549 -44 -77.87816 0 1 0 0.5050189 0.2537748
65.54901 -44 -77.87816 0.02361188 0.9914035 0.1286921 0.6032204 0.2537748
23.54901 -44 -77.87816 0 0.9874011 -0.1582373 0.7014215 0.2537748
-18.45099 -44 -77.87816 0.004746057 0.9913841 -0.1309012 0.7996227 0.2537748
-60.45099 -44 -77.87816 0 0.9820065 -0.1888474 0.8978241 0.2537748
-102.451 -44 -77.87816 -0.08418151 0.9934148 -0.07772004 0.9960253 0.2537748
3 0 1 2 
3 1 3 2 
3 4 5 6 
3 5 7 6 
3 8 9 10 
3 9 11 10 
3 12 13 14 
3 13 15 14 
3 16 13 17 
3 13 7 17 
3 18 12 0 
3 0 19 18 
3 18 20 12 
3 8 12 20 
3 0 21 19 
3 0 4 21 
3 4 20 21 
3 4 8 20 
3 22 23 24 
3 25 26 27 
3 28 29 30 
3 28 30 31 
3 23 32 24 
3 27 26 33 
3 31 30 34 
3 30 35 34 
3 32 36 24 
3 33 26 37 
3 34 35 38 
3 34 38 39 
3 36 40 24 
3 37 26 41 
3 39 38 42 
3 38 43 42 
3 40 44 24 
3 41 26 45 
3 42 43 46 
3 42 46 47 
3 44 48 24 
3 45 26 49 
3 47 46 50 
3 46 51 50 
3 52 53 54 
3 55 56 57 
3 58 59 60 
3 59 61 60 
3 53 62 54 
3 57 56 63 
3 60 61 64 
3 60 64 65 
3 62 66 54 
3 63 56 67 
3 65 64 68 
3 64 69 68 
3 70 71 54 
3 72 56 73 
3 74 75 76 
3 74 76 77 
3 71 78 54 
3 73 56 79 
3 77 76 80 
3 76 81 80 
3 78 52 54 
3 79 56 55 
3 80 81 82 
3 80 82 83 
3 84 85 86 
3 87 88 89 
3 87 90 91 
3 92 87 90 
3 93 94 95 
3 96 97 92 
3 89 96 88 
3 96 88 97 
3 98 99 100 
3 98 101 99 
3 102 103 104 
3 102 105 103 
3 106 107 108 
3 106 109 107 
3 110 111 112 
3 110 113 111 
3 114 111 115 
3 114 105 111 
3 116 117 118 
3 116 118 119 
3 118 120 121 
3 118 121 119 
3 121 120 122 
3 121 122 123 
3 122 124 125 
3 122 125 123 
3 125 124 126 
3 125 126 127 
3 128 129 118 
3 128 118 117 
3 118 129 130 
3 118 130 120 
3 130 131 122 
3 130 122 120 
3 122 131 132 
3 122 132 124 
3 132 133 126 
3 132 126 124 
3 128 134 135 
3 128 135 129 
3 135 136 130 
3 135 130 129 
3 130 136 137 
3 130 137 131 
3 137 138 132 
3 137 132 131 
3 132 138 139 
3 132 139 133 
3 140 141 135 
3 140 135 134 
3 135 141 142 
3 135 142 136 
3 142 143 137 
3 142 137 136 
3 137 143 144 
3 137 144 138 
3 144 145 139 
3 144 139 138 
3 140 146 147 
3 140 147 141 
3 147 148 142 
3 147 142 141 
3 142 148 149 
3 142 149 143 
3 149 150 144 
3 149 144 143 
3 144 150 151 
3 144 151 145 
