ply
format ascii 1.0
comment VCGLIB generated
comment TextureFile dummy.png
element vertex 379
property float x
property float y
property float z
property float nx
property float ny
property float nz
property float texture_u
property float texture_v
element face 187
property list uchar int vertex_indices
end_header
16.65114 124.022 -453.009 0.6243021 -0.781183 -8.186733e-08 0.215235 0.56203
26.30503 131.737 -500 0.6243021 -0.781183 -8.186733e-08 0.23736 0.565663
26.30504 131.737 -453.009 0.6243021 -0.781183 -8.186733e-08 0.215235 0.565663
16.65113 204.038 -500 0.6243032 0.7811822 -8.186747e-08 0.23736 0.599704
26.30504 196.323 -453.009 0.6243032 0.7811822 -8.186747e-08 0.215235 0.596071
26.30503 196.323 -500 0.6243032 0.7811822 -8.186748e-08 0.23736 0.596071
26.30504 131.737 -453.009 1 0 -1.311342e-07 0.215235 0.815663
26.30503 196.323 -500 1 0 -1.311342e-07 0.23736 0.846071
26.30504 196.323 -453.009 1 0 -1.311342e-07 0.215235 0.846071
16.65115 164.03 -406.966 0.5712072 0.6195771 0.5383741 0.193556 0.580867
26.30504 172.08 -426.474 0.5712072 0.6195771 0.5383741 0.202741 0.584657
16.65114 204.038 -453.009 0.5712072 0.6195771 0.5383741 0.215235 0.599704
16.65114 204.038 -453.009 0.5081604 0.6358543 0.5809153 0.215235 0.599704
26.30504 172.08 -426.474 0.5081604 0.6358543 0.5809153 0.202741 0.584657
26.30504 196.323 -453.009 0.5081604 0.6358543 0.5809153 0.215235 0.596071
16.65115 164.03 -406.966 0.5985971 -0.591403 0.5403 0.193556 0.580867
26.30504 152.25 -430.556 0.5985971 -0.591403 0.5403 0.204663 0.575321
20.55025 164.03 -411.286 0.5985971 -0.591403 0.5403 0.19559 0.580867
16.65114 124.022 -453.009 0.5081603 -0.6358562 0.5809132 0.215235 0.56203
26.30504 131.737 -453.009 0.5081603 -0.6358562 0.5809132 0.215235 0.565663
26.30504 152.25 -430.556 0.5081603 -0.6358562 0.5809132 0.204663 0.575321
26.30504 152.25 -430.556 1 0 -1.311342e-07 0.204663 0.825321
26.30503 196.323 -500 -1.311342e-07 0 -1 0.23736 0.846071
16.65113 124.022 -500 -1.311342e-07 0 -1 0.23736 0.81203
16.65113 204.038 -500 -1.311342e-07 0 -1 0.23736 0.849704
26.50846 171.746 -319.087 0.6847799 0.7278768 0.03566391 0.15218 0.5845
16.65116 179.135 -280.632 0.6847799 0.7278768 0.03566391 0.134074 0.587531
26.50847 167.28 -227.957 0.6847799 0.7278768 0.03566391 0.109272 0.5845
16.65114 74.9949 -456.378 -1e-06 -1 1.311342e-13 0.216821 0.538946
26.50839 74.9949 -56.4985 -1e-06 -1 1.311342e-13 0.028544 0.538946
16.65119 74.9949 -43.6218 -1e-06 -1 1.311342e-13 0.022481 0.538946
26.50845 161.344 -357.161 1 0 -1.311342e-07 0.170106 0.829602
26.50847 167.28 -227.957 1 0 -1.311342e-07 0.109272 0.8345
26.50838 122.165 -123.351 1 0 -1.311342e-07 0.06002 0.811156
26.50834 74.9949 -443.501 0.6785529 0.5193809 -0.519432 0.210758 0.538946
16.65115 178.184 -353.199 0.6785529 0.5193809 -0.519432 0.168241 0.587531
19.97655 176.012 -351.027 0.6785529 0.5193809 -0.519432 0.167218 0.586509
19.97655 176.012 -351.027 0.6785541 0.51938 -0.5194312 0.167218 0.586509
26.50845 161.344 -357.161 0.6785541 0.51938 -0.5194312 0.170106 0.579602
26.50834 74.9949 -443.501 0.6785541 0.51938 -0.5194312 0.210758 0.538946
16.65118 178.184 -146.801 0.6785472 0.5193831 0.5194371 0.071061 0.587531
26.50848 163.448 -144.943 0.6785472 0.5193831 0.5194371 0.070186 0.580593
26.50848 171.746 -153.24 0.6785472 0.5193831 0.5194371 0.074093 0.5845
16.65119 204.038 -46.9913 0.6243021 0.781183 -8.186733e-08 0.024068 0.599704
26.3051 196.323 -3.449497e-06 0.6243021 0.781183 -8.186733e-08 0.001942 0.596071
26.30509 196.323 -46.9913 0.6243021 0.781183 -8.186733e-08 0.024068 0.596071
16.6512 124.022 -2.183541e-06 0.6243032 -0.7811822 -8.186747e-08 0.001942 0.56203
26.30509 131.737 -46.9913 0.6243032 -0.7811822 -8.186747e-08 0.024068 0.565663
26.3051 131.737 -3.449497e-06 0.6243032 -0.7811822 -8.186748e-08 0.001942 0.565663
26.30509 196.323 -46.9913 1 0 -1.311342e-07 0.024068 0.846071
26.3051 131.737 -3.449497e-06 1 0 -1.311342e-07 0.001942 0.815663
26.30509 131.737 -46.9913 1 0 -1.311342e-07 0.024068 0.815663
26.30509 138.356 -54.2357 0.9834732 -0.064895 -0.1690242 0.027478 0.568779
22.43199 164.03 -86.6292 0.9834732 -0.064895 -0.1690242 0.04273 0.580867
26.30509 153.49 -60.0462 0.9834732 -0.064895 -0.1690242 0.030214 0.575904
22.43199 164.03 -86.6292 0.9665994 -0.156564 -0.2029122 0.04273 0.580867
26.30509 171.617 -74.0332 0.9665994 -0.156564 -0.2029122 0.0368 0.584439
26.30509 153.49 -60.0462 0.9665994 -0.156564 -0.2029122 0.030214 0.575904
26.3051 131.737 -3.449497e-06 1.311342e-07 0 1 0.001942 0.815663
16.6512 204.038 -2.183541e-06 1.311342e-07 0 1 0.001942 0.849704
16.6512 124.022 -2.183541e-06 1.311342e-07 0 1 0.001942 0.81203
16.65114 220.333 -424.061 0.9032543 -0.4290721 0.005370883 0.201605 0.607897
31.19523 250 -500 0.9032543 -0.4290721 0.005370883 0.23736 0.621345
31.19525 251.106 -411.649 0.9032543 -0.4290721 0.005370883 0.195761 0.621345
-14.2392 2e-06 1.867246e-06 0 -1 0 0.001942 0.753636
31.19523 -4.999999e-06 -500 0 -1 0 0.23736 0.753636
31.1953 -4.999999e-06 -4.090769e-06 0 -1 0 0.001942 0.753636
-14.23917 500 -500 -1 0 1.311342e-07 0.23736 0.989053
-14.2392 2e-06 1.867246e-06 -1 0 1.311342e-07 0.001942 0.753636
-14.2391 500 1.867232e-06 -1 0 1.311342e-07 0.001942 0.989053
16.65119 446.955 -90.6069 1 0 -1.311342e-07 0.044048 0.963534
16.6512 304.2 -2.183541e-06 1 0 -1.311342e-07 0.001942 0.896864
16.65119 304.2 -103.246 1 0 -1.311342e-07 0.050554 0.896864
16.65114 444.425 -425.583 1 0 -1.311342e-07 0.202012 0.963534
16.65113 304.2 -500 1 0 -1.311342e-07 0.23736 0.896864
16.65113 445.8 -500 1 0 -1.311342e-07 0.23736 0.963534
31.19535 286 -389.445 1 0 -1.311342e-07 0.185307 0.888295
31.19523 250 -500 1 0 -1.311342e-07 0.23736 0.871345
31.19534 286 -500 1 0 -1.311342e-07 0.23736 0.888295
31.19536 464 -286 1 0 -1.311342e-07 0.136601 0.972103
31.1954 500 -4.090783e-06 1 0 -1.311342e-07 0.001942 0.989053
31.19537 464 -214 1 0 -1.311342e-07 0.102701 0.972103
31.19539 462.845 -72.7255 1 0 -1.311342e-07 0.036739 0.972103
31.1954 464 -4.090783e-06 1 0 -1.311342e-07 0.001942 0.972103
31.19525 251.106 -411.649 1 0 -1.311342e-07 0.195761 0.871345
31.19538 286 -110.555 0.9675688 0.2393579 0.08073686 0.053995 0.638295
31.19538 298.332 -147.115 0.9675688 0.2393579 0.08073686 0.070198 0.645157
27.09829 305.187 -118.339 0.9675688 0.2393579 0.08073686 0.057661 0.647329
31.19537 397.871 -216.635 0.8199802 0 0.5723919 0.102701 0.69337
16.65117 445.8 -195.8 0.8199802 0 0.5723919 0.094132 0.713534
16.65117 392.836 -195.8 0.8199802 0 0.5723919 0.094132 0.688597
31.19539 462.845 -72.7255 0.7424031 -0.669899 -0.0085381 0.036739 0.722103
16.6512 445.8 -2.183541e-06 0.7424031 -0.669899 -0.0085381 0.001942 0.713534
16.65119 446.955 -90.6069 0.7424031 -0.669899 -0.0085381 0.044048 0.713534
31.1954 286 -4.090783e-06 0.7812013 0.6242792 -1.024422e-07 0.001942 0.638295
16.65119 304.2 -103.246 0.7812013 0.6242792 -1.024422e-07 0.050554 0.646864
16.6512 304.2 -2.183541e-06 0.7812013 0.6242792 -1.024422e-07 0.001942 0.646864
31.19534 286 -500 0.7812008 0.6242798 -1.024421e-07 0.23736 0.638295
16.65115 304.2 -396.754 0.7812008 0.6242798 -1.024421e-07 0.188748 0.646864
31.19535 286 -389.445 0.7812008 0.6242798 -1.024421e-07 0.185307 0.638295
16.65113 445.8 -500 0.8115711 -0.584154 -0.01079211 0.23736 0.713534
31.19534 465.375 -465.816 0.8115711 -0.584154 -0.01079211 0.221575 0.722103
16.65114 444.425 -425.583 0.8115711 -0.584154 -0.01079211 0.202012 0.713534
31.19535 328.304 -338.648 0.8571809 0.363145 -0.3651941 0.161673 0.658508
16.65115 304.2 -396.754 0.8571809 0.363145 -0.3651941 0.188748 0.646864
16.65116 363.779 -337.51 0.8571809 0.363145 -0.3651941 0.160727 0.674784
31.19536 464 -286 0.8086721 -0.06116401 -0.5850713 0.136601 0.722103
31.19536 438.792 -283.365 0.8086721 -0.06116401 -0.5850713 0.136601 0.707832
16.65116 445.8 -304.2 0.8086721 -0.06116401 -0.5850713 0.14517 0.713534
16.65113 221.439 -500 1 0 -1.311342e-07 0.23736 0.607897
16.65114 220.333 -424.061 1 0 -1.311342e-07 0.201605 0.607897
16.65113 105.152 -500 1 0 -1.311342e-07 0.23736 0.553145
16.65113 105.152 -500 0.8956017 0.4448568 -1.17444e-07 0.23736 0.553145
27.93927 82.42639 -200.651 0.8956017 0.4448568 -1.17444e-07 0.096416 0.542445
28.31754 81.66499 -436.978 0.8956017 0.4448568 -1.17444e-07 0.207687 0.542087
31.19523 -4.999999e-06 -500 1 0 -1.311342e-07 0.23736 0.753636
31.19524 75.87139 -460.469 1 0 -1.311342e-07 0.218747 0.789359
31.19524 66.35429 -419.117 1 0 -1.311342e-07 0.199277 0.784878
31.19536 438.792 -283.365 1 0 -1.311342e-07 0.136601 0.957832
31.1953 250 -4.090769e-06 1 0 -1.311342e-07 0.001942 0.871345
31.19538 286 -110.555 1 0 -1.311342e-07 0.053995 0.888295
31.1954 286 -4.090783e-06 1 0 -1.311342e-07 0.001942 0.888295
31.19534 464 -500 1 0 -1.311342e-07 0.23736 0.972103
31.19534 500 -500 1 0 -1.311342e-07 0.23736 0.989053
31.19534 465.375 -465.816 1 0 -1.311342e-07 0.221575 0.972103
31.1954 464 -4.090783e-06 1.311342e-07 0 1 0.001942 0.972103
-14.2391 500 1.867232e-06 1.311342e-07 0 1 0.001942 0.989053
16.6512 445.8 -2.183541e-06 1.311342e-07 0 1 0.001942 0.963534
16.65113 304.2 -500 -1.311342e-07 0 -1 0.23736 0.896864
31.19523 250 -500 -1.311342e-07 0 -1 0.23736 0.871345
16.65113 221.439 -500 -1.311342e-07 0 -1 0.23736 0.857897
16.6512 304.2 -2.183541e-06 1.311342e-07 0 1 0.001942 0.896864
31.1953 250 -4.090769e-06 1.311342e-07 0 1 0.001942 0.871345
31.1954 286 -4.090783e-06 1.311342e-07 0 1 0.001942 0.888295
-14.2392 2e-06 1.867246e-06 1.311342e-07 0 1 0.001942 0.753636
31.1953 75.87139 -4.090769e-06 1.311342e-07 0 1 0.001942 0.789359
16.6512 105.152 -2.183541e-06 1.311342e-07 0 1 0.001942 0.803145
16.6512 221.439 -2.183541e-06 1.311342e-07 0 1 0.001942 0.857897
-14.23927 2e-06 -500 -1.311342e-07 0 -1 0.23736 0.753636
31.19523 75.87139 -500 -1.311342e-07 0 -1 0.23736 0.789359
31.19523 -4.999999e-06 -500 -1.311342e-07 0 -1 0.23736 0.753636
-14.23917 500 -500 -1.311342e-07 0 -1 0.23736 0.989053
31.19534 464 -500 -1.311342e-07 0 -1 0.23736 0.972103
16.65113 445.8 -500 -1.311342e-07 0 -1 0.23736 0.963534
31.19534 500 -500 0 1 0 0.23736 0.989053
-14.2391 500 1.867232e-06 0 1 0 0.001942 0.989053
31.1954 500 -4.090783e-06 0 1 0 0.001942 0.989053
31.19537 385.066 -214 0.8000072 0.120945 0.5876741 0.102701 0.684938
31.19537 397.871 -216.635 0.8000072 0.120945 0.5876741 0.102701 0.69337
16.65117 392.836 -195.8 0.8000072 0.120945 0.5876741 0.094132 0.688597
31.19537 397.871 -216.635 1 0 -1.311342e-07 0.102701 0.94337
31.19536 385.066 -286 1 0 -1.311342e-07 0.136601 0.934938
31.19536 438.792 -283.365 0.8199805 0 -0.5723915 0.136601 0.707832
16.65116 392.836 -304.2 0.8199805 0 -0.5723915 0.14517 0.688597
16.65116 445.8 -304.2 0.8199805 0 -0.5723915 0.14517 0.713534
16.65117 392.836 -195.8 1 0 -1.311342e-07 0.094132 0.938597
31.19537 464 -214 0.7844923 -0.6201012 0.0068079 0.102701 0.722103
16.65119 446.955 -90.6069 0.7844923 -0.6201012 0.0068079 0.044048 0.713534
16.65117 445.8 -195.8 0.7844923 -0.6201012 0.0068079 0.094132 0.713534
16.65114 444.425 -425.583 0.777697 -0.6285989 0.007119898 0.202012 0.713534
31.19536 464 -286 0.777697 -0.6285989 0.007119898 0.136601 0.722103
16.65116 445.8 -304.2 0.777697 -0.6285989 0.007119898 0.14517 0.713534
16.65115 304.2 -396.754 1 0 -1.311342e-07 0.188748 0.896864
16.65116 363.779 -337.51 1 0 -1.311342e-07 0.160864 0.924896
31.19526 259.758 -310.898 0.9853551 -0.15231 0.07666087 0.140182 0.621465
25.46686 238.751 -279.005 0.9853551 -0.15231 0.07666087 0.133308 0.616048
31.19526 250.407 -329.477 0.9853551 -0.15231 0.07666087 0.157072 0.621345
16.65116 221.439 -274.869 1 0 -1.311342e-07 0.13136 0.607897
16.6512 105.152 -2.183541e-06 1 0 -1.311342e-07 0.001942 0.553145
31.19529 249.202 -96.8571 1 0 -1.311342e-07 0.046859 0.871345
31.1953 250 -4.090769e-06 0.9005505 -0.4347367 0.00357988 0.001942 0.621345
16.65119 219.303 -69.0558 0.9005505 -0.4347367 0.00357988 0.034827 0.606689
31.19529 249.202 -96.8571 0.9005505 -0.4347367 0.00357988 0.046859 0.621345
16.65119 219.303 -69.0558 1 0 -1.311342e-07 0.034827 0.606689
16.6512 221.439 -2.183541e-06 1 0 -1.311342e-07 0.001942 0.607897
31.19527 249.696 -211.234 0.9513986 -0.3064049 -0.03093311 0.101137 0.621345
25.46686 238.751 -279.005 0.9513986 -0.3064049 -0.03093311 0.133308 0.616048
31.19526 259.758 -310.898 0.9513986 -0.3064049 -0.03093311 0.140182 0.621465
16.65114 220.333 -424.061 0.891431 -0.453144 0.003358883 0.201605 0.607897
25.46686 238.751 -279.005 0.891431 -0.453144 0.003358883 0.133308 0.616048
16.65116 221.439 -274.869 0.891431 -0.453144 0.003358883 0.13136 0.607897
31.19526 250.407 -329.477 1 0 -1.311342e-07 0.157072 0.871345
31.19538 298.332 -147.115 1 0 -1.311342e-07 0.071014 0.894207
25.46686 238.751 -279.005 0.890646 -0.454673 -0.004718117 0.133308 0.616048
16.65119 219.303 -69.0558 0.890646 -0.454673 -0.004718117 0.034827 0.606689
16.65116 221.439 -274.869 0.890646 -0.454673 -0.004718117 0.13136 0.607897
26.50845 161.344 -357.161 0.8867912 0.4458321 -0.1218001 0.170106 0.579602
19.97655 176.012 -351.027 0.8867912 0.4458321 -0.1218001 0.167218 0.586509
26.50846 171.746 -319.087 0.8867912 0.4458321 -0.1218001 0.15218 0.5845
26.50848 163.448 -144.943 0.9626467 0.125485 0.2399268 0.070186 0.580593
20.47139 129.193 -102.805 0.9626467 0.125485 0.2399268 0.050346 0.564464
26.50838 122.165 -123.351 0.9626467 0.125485 0.2399268 0.057519 0.563656
26.50838 122.165 -123.351 0.9175686 0.3710968 0.1426718 0.057519 0.563656
20.47139 129.193 -102.805 0.9175686 0.3710968 0.1426718 0.050346 0.564464
26.50839 109.869 -91.3693 0.9175686 0.3710968 0.1426718 0.044962 0.555366
26.50839 109.869 -91.3693 0.6785481 0.519383 0.519436 0.044962 0.555366
16.65119 74.9949 -43.6218 0.6785481 0.519383 0.519436 0.022481 0.538946
26.50839 74.9949 -56.4985 0.6785481 0.519383 0.519436 0.028544 0.538946
16.65119 74.9949 -43.6218 0.6785473 0.5193841 0.5194361 0.022481 0.538946
20.47139 129.193 -102.805 0.6785473 0.5193841 0.5194361 0.050346 0.564464
16.65118 178.184 -146.801 0.6785473 0.5193841 0.5194361 0.071061 0.587531
26.50846 171.746 -319.087 0.5726132 0.8197553 -0.01074408 0.15218 0.5845
16.65115 178.184 -353.199 0.5726132 0.8197553 -0.01074408 0.168241 0.587531
16.65116 179.135 -280.632 0.5726132 0.8197553 -0.01074408 0.134074 0.587531
26.50847 167.28 -227.957 0.5226401 0.8510351 -0.05085807 0.109272 0.5845
16.65118 178.184 -146.801 0.5226401 0.8510351 -0.05085807 0.071061 0.587531
26.50848 171.746 -153.24 0.5226401 0.8510351 -0.05085807 0.074093 0.5845
26.50848 163.448 -144.943 1 0 -1.311342e-07 0.070186 0.830593
26.50834 74.9949 -443.501 1 0 -1.311342e-07 0.210758 0.788946
26.50839 74.9949 -56.4985 1 0 -1.311342e-07 0.028544 0.788946
31.19527 249.696 -211.234 1 0 -1.311342e-07 0.101137 0.871345
31.19526 259.758 -310.898 1 0 -1.311342e-07 0.1483 0.875912
31.19535 328.304 -338.648 1 0 -1.311342e-07 0.16139 0.908213
31.19538 331.489 -158.055 1 0 -1.311342e-07 0.07636 0.909713
31.19538 331.489 -158.055 0.990477 0.043138 0.1307459 0.07636 0.659713
27.09829 305.187 -118.339 0.990477 0.043138 0.1307459 0.057661 0.647329
31.19538 298.332 -147.115 0.990477 0.043138 0.1307459 0.070198 0.645157
16.65119 304.2 -103.246 0.7812001 0.450874 0.4317859 0.050554 0.646864
31.19538 331.489 -158.055 0.7812001 0.450874 0.4317859 0.07636 0.659713
16.65117 392.836 -195.8 0.7812001 0.450874 0.4317859 0.094132 0.688597
31.19538 286 -110.555 0.748683 0.3801989 0.5430678 0.053995 0.638295
27.09829 305.187 -118.339 0.748683 0.3801989 0.5430678 0.057661 0.647329
16.65119 304.2 -103.246 0.748683 0.3801989 0.5430678 0.050554 0.646864
20.55025 164.03 -411.286 0.9442101 -0.06640901 0.3225789 0.19559 0.580867
26.30504 152.25 -430.556 0.9442101 -0.06640901 0.3225789 0.204663 0.575321
26.30504 172.08 -426.474 0.9442101 -0.06640901 0.3225789 0.202741 0.584657
16.65119 164.03 -93.0337 0.598598 0.591401 -0.5403011 0.045746 0.580867
26.30509 171.617 -74.0332 0.598598 0.591401 -0.5403011 0.0368 0.584439
22.43199 164.03 -86.6292 0.598598 0.591401 -0.5403011 0.04273 0.580867
16.65119 204.038 -46.9913 0.5081602 0.6358553 -0.5809143 0.024068 0.599704
26.30509 196.323 -46.9913 0.5081602 0.6358553 -0.5809143 0.024068 0.596071
26.30509 171.617 -74.0332 0.5081602 0.6358553 -0.5809143 0.0368 0.584439
26.30509 153.49 -60.0462 1 0 -1.311342e-07 0.030214 0.825904
16.65119 164.03 -93.0337 0.5321571 -0.6390831 -0.5553212 0.045746 0.580867
26.30509 138.356 -54.2357 0.5321571 -0.6390831 -0.5553212 0.027478 0.568779
16.65119 124.022 -46.9913 0.5321571 -0.6390831 -0.5553212 0.024068 0.56203
26.30509 131.737 -46.9913 0.5081609 -0.6358549 -0.580914 0.024068 0.565663
16.65119 124.022 -46.9913 0.5081609 -0.6358549 -0.580914 0.024068 0.56203
26.30509 138.356 -54.2357 0.5081609 -0.6358549 -0.580914 0.027478 0.568779
16.65116 445.8 -304.2 1 0 -1.311342e-07 0.14517 0.963534
16.65116 392.836 -304.2 1 0 -1.311342e-07 0.14517 0.938597
31.19536 385.066 -286 0.7747112 0.4764941 -0.4156632 0.136601 0.684938
16.65116 363.779 -337.51 0.7747112 0.4764941 -0.4156632 0.160727 0.674784
16.65116 392.836 -304.2 0.7747112 0.4764941 -0.4156632 0.14517 0.688597
31.19537 385.066 -214 1 0 -1.311342e-07 0.102701 0.934938
16.65117 392.836 -195.8 0.7811998 0.4508738 0.4317868 0.094132 0.688597
31.19538 331.489 -158.055 0.7811998 0.4508738 0.4317868 0.07636 0.659713
31.19537 385.066 -214 0.7811998 0.4508738 0.4317868 0.102701 0.684938
31.19524 75.87139 -460.469 0.966955 0.248452 0.05718087 0.218747 0.539359
28.31754 81.66499 -436.978 0.966955 0.248452 0.05718087 0.207687 0.542087
31.19524 66.35429 -419.117 0.966955 0.248452 0.05718087 0.199277 0.535765
31.19524 66.35429 -419.117 0.986067 0.165475 -0.01702813 0.199277 0.535765
28.31754 81.66499 -436.978 0.986067 0.165475 -0.01702813 0.207687 0.542087
31.19526 75.87139 -326.632 0.986067 0.165475 -0.01702813 0.155732 0.539359
31.19527 65.85659 -217.095 1 0 -1.311342e-07 0.104158 0.784644
31.19526 75.87139 -326.632 1 0 -1.311342e-07 0.155732 0.789359
31.19527 75.87139 -249.713 1 0 -1.311342e-07 0.119516 0.789359
31.19524 75.87139 -460.469 0.8956017 0.4448568 -1.17444e-07 0.218747 0.539359
31.19523 75.87139 -500 0.8956017 0.4448568 -1.17444e-07 0.23736 0.539359
31.19527 65.85659 -217.095 0.9807718 0.1951429 -0.002439128 0.104158 0.535577
27.93927 82.42639 -200.651 0.9807718 0.1951429 -0.002439128 0.096416 0.542445
31.19528 66.5071 -165.051 0.9807718 0.1951429 -0.002439128 0.079654 0.535823
16.6512 105.152 -2.183541e-06 0.8956017 0.4448568 -1.17444e-07 0.001942 0.553145
31.19528 75.87139 -120.088 0.8956017 0.4448568 -1.17444e-07 0.058484 0.539359
31.19526 75.87139 -326.632 0.8956017 0.4448568 -1.17444e-07 0.155732 0.539359
31.19527 75.87139 -249.713 0.9878159 0.148773 0.04567887 0.119516 0.539359
27.93927 82.42639 -200.651 0.9878159 0.148773 0.04567887 0.096416 0.542445
31.19527 65.85659 -217.095 0.9878159 0.148773 0.04567887 0.104158 0.535577
31.19528 66.5071 -165.051 0.989994 0.138145 -0.02877113 0.079654 0.535823
27.93927 82.42639 -200.651 0.989994 0.138145 -0.02877113 0.096416 0.542445
31.19528 75.87139 -120.088 0.989994 0.138145 -0.02877113 0.058484 0.539359
31.1953 -4.999999e-06 -4.090769e-06 1 0 -1.311342e-07 0.001942 0.753636
31.19528 75.87139 -120.088 1 0 -1.311342e-07 0.058484 0.789359
31.1953 75.87139 -4.090769e-06 1 0 -1.311342e-07 0.001942 0.789359
31.19528 66.5071 -165.051 1 0 -1.311342e-07 0.079654 0.78495
31.19526 250.407 -329.477 0.9046641 -0.42611 -0.003626119 0.157072 0.621345
16.65114 220.333 -424.061 0.9046641 -0.42611 -0.003626119 0.201605 0.607897
31.19525 251.106 -411.649 0.9046641 -0.42611 -0.003626119 0.195761 0.621345
16.65119 219.303 -69.0558 0.8985553 -0.4388562 -0.001894119 0.034827 0.606689
31.19527 249.696 -211.234 0.8985553 -0.4388562 -0.001894119 0.101137 0.621345
31.19529 249.202 -96.8571 0.8985553 -0.4388562 -0.001894119 0.046859 0.621345
26.30509 171.617 -74.0332 1 0 -1.311342e-07 0.0368 0.834439
16.65113 124.022 -500 0.6243021 -0.781183 -8.186733e-08 0.23736 0.56203
16.65114 204.038 -453.009 0.6243032 0.7811822 -8.186748e-08 0.215235 0.599704
26.30503 131.737 -500 1 0 -1.311342e-07 0.23736 0.815663
16.65115 164.03 -406.966 0.5985982 0.5914001 0.540302 0.193556 0.580867
20.55025 164.03 -411.286 0.5985982 0.5914001 0.540302 0.19559 0.580867
26.30504 172.08 -426.474 0.5985982 0.5914001 0.540302 0.202741 0.584657
16.65115 164.03 -406.966 0.5632439 -0.6237187 0.5419698 0.193556 0.580867
16.65114 124.022 -453.009 0.5632439 -0.6237187 0.5419698 0.215235 0.56203
26.30504 152.25 -430.556 0.5632439 -0.6237187 0.5419698 0.204663 0.575321
26.30504 172.08 -426.474 1 0 -1.311342e-07 0.202741 0.834657
26.30503 131.737 -500 -1.311342e-07 0 -1 0.23736 0.815663
26.50834 74.9949 -443.501 -1e-06 -1 1.311342e-13 0.210758 0.538946
26.50846 171.746 -319.087 1 0 -1.311342e-07 0.15218 0.8345
26.50834 74.9949 -443.501 0.678548 0.519383 -0.5194361 0.210758 0.538946
16.65114 74.9949 -456.378 0.678548 0.519383 -0.5194361 0.216821 0.538946
16.65115 178.184 -353.199 0.678548 0.519383 -0.5194361 0.168241 0.587531
16.65118 178.184 -146.801 0.6785478 0.5193838 0.5194358 0.071061 0.587531
20.47139 129.193 -102.805 0.6785478 0.5193838 0.5194358 0.050346 0.564464
26.50848 163.448 -144.943 0.6785478 0.5193838 0.5194358 0.070186 0.580593
16.6512 204.038 -2.183541e-06 0.6243021 0.781183 -8.186733e-08 0.001942 0.599704
16.65119 124.022 -46.9913 0.6243032 -0.7811822 -8.186748e-08 0.024068 0.56203
26.3051 196.323 -3.449497e-06 1 0 -1.311342e-07 0.001942 0.846071
26.3051 196.323 -3.449497e-06 1.311342e-07 0 1 0.001942 0.846071
16.65114 220.333 -424.061 0.8910922 -0.4537741 -0.006609118 0.201605 0.607897
16.65113 221.439 -500 0.8910922 -0.4537741 -0.006609118 0.23736 0.607897
31.19523 250 -500 0.8910922 -0.4537741 -0.006609118 0.23736 0.621345
-14.23927 2e-06 -500 0 -1 0 0.23736 0.753636
-14.23927 2e-06 -500 -1 0 1.311342e-07 0.23736 0.753636
16.6512 445.8 -2.183541e-06 1 0 -1.311342e-07 0.001942 0.963534
31.19537 397.871 -216.635 0.7926681 -0.024276 0.60917 0.102701 0.69337
31.19537 464 -214 0.7926681 -0.024276 0.60917 0.102701 0.722103
16.65117 445.8 -195.8 0.7926681 -0.024276 0.60917 0.094132 0.713534
31.19539 462.845 -72.7255 0.7811632 -0.6242481 0.009912901 0.036739 0.722103
31.1954 464 -4.090783e-06 0.7811632 -0.6242481 0.009912901 0.001942 0.722103
16.6512 445.8 -2.183541e-06 0.7811632 -0.6242481 0.009912901 0.001942 0.713534
31.1954 286 -4.090783e-06 0.7812008 0.6242798 -1.024421e-07 0.001942 0.638295
31.19538 286 -110.555 0.7812008 0.6242798 -1.024421e-07 0.053995 0.638295
16.65119 304.2 -103.246 0.7812008 0.6242798 -1.024421e-07 0.050554 0.646864
31.19534 286 -500 0.7812013 0.6242792 -1.024422e-07 0.23736 0.638295
16.65113 304.2 -500 0.7812013 0.6242792 -1.024422e-07 0.23736 0.646864
16.65115 304.2 -396.754 0.7812013 0.6242792 -1.024422e-07 0.188748 0.646864
16.65113 445.8 -500 0.7809554 -0.6240823 0.02509891 0.23736 0.713534
31.19534 464 -500 0.7809554 -0.6240823 0.02509891 0.23736 0.722103
31.19534 465.375 -465.816 0.7809554 -0.6240823 0.02509891 0.221575 0.722103
31.19535 328.304 -338.648 0.7887641 0.4723481 -0.3933682 0.161673 0.658508
31.19535 286 -389.445 0.7887641 0.4723481 -0.3933682 0.185307 0.638295
16.65115 304.2 -396.754 0.7887641 0.4723481 -0.3933682 0.188748 0.646864
31.19523 75.87139 -500 1 0 -1.311342e-07 0.23736 0.789359
31.1954 500 -4.090783e-06 1.311342e-07 0 1 0.001942 0.989053
31.19534 286 -500 -1.311342e-07 0 -1 0.23736 0.888295
31.1953 -4.999999e-06 -4.090769e-06 1.311342e-07 0 1 0.001942 0.753636
16.65113 105.152 -500 -1.311342e-07 0 -1 0.23736 0.803145
31.19534 500 -500 -1.311342e-07 0 -1 0.23736 0.989053
-14.23917 500 -500 0 1 0 0.23736 0.989053
31.19536 438.792 -283.365 0.7870955 0.03022002 -0.6160905 0.136601 0.707832
31.19536 385.066 -286 0.7870955 0.03022002 -0.6160905 0.136601 0.684938
16.65116 392.836 -304.2 0.7870955 0.03022002 -0.6160905 0.14517 0.688597
16.65117 445.8 -195.8 1 0 -1.311342e-07 0.094132 0.963534
31.19537 464 -214 0.7407221 -0.6717891 -0.005492098 0.102701 0.722103
31.19539 462.845 -72.7255 0.7407221 -0.6717891 -0.005492098 0.036739 0.722103
16.65119 446.955 -90.6069 0.7407221 -0.6717891 -0.005492098 0.044048 0.713534
16.65114 444.425 -425.583 0.8174574 -0.5759723 -0.004404109 0.202012 0.713534
31.19534 465.375 -465.816 0.8174574 -0.5759723 -0.004404109 0.221575 0.722103
31.19536 464 -286 0.8174574 -0.5759723 -0.004404109 0.136601 0.722103
31.1953 250 -4.090769e-06 0.8910242 -0.453739 0.01403289 0.001942 0.621345
16.6512 221.439 -2.183541e-06 0.8910242 -0.453739 0.01403289 0.001942 0.607897
16.65119 219.303 -69.0558 0.8910242 -0.453739 0.01403289 0.034827 0.606689
20.47139 129.193 -102.805 0.6785481 0.519383 0.519436 0.050346 0.564464
26.50846 171.746 -319.087 0.546848 0.8372319 -1.07171e-06 0.15218 0.5845
19.97655 176.012 -351.027 0.546848 0.8372319 -1.07171e-06 0.167218 0.586509
16.65115 178.184 -353.199 0.546848 0.8372319 -1.07171e-06 0.168241 0.587531
26.50847 167.28 -227.957 0.7586907 0.6514347 0.004629898 0.109272 0.5845
16.65116 179.135 -280.632 0.7586907 0.6514347 0.004629898 0.134074 0.587531
16.65118 178.184 -146.801 0.7586907 0.6514347 0.004629898 0.071061 0.587531
26.50848 171.746 -153.24 1 0 -1.311342e-07 0.074093 0.8345
26.50839 109.869 -91.3693 1 0 -1.311342e-07 0.044962 0.805366
16.65119 304.2 -103.246 0.6266613 0.6184131 0.4741951 0.050554 0.646864
27.09829 305.187 -118.339 0.6266613 0.6184131 0.4741951 0.057661 0.647329
31.19538 331.489 -158.055 0.6266613 0.6184131 0.4741951 0.07636 0.659713
16.65119 164.03 -93.0337 0.5721833 0.6190643 -0.5379273 0.045746 0.580867
16.65119 204.038 -46.9913 0.5721833 0.6190643 -0.5379273 0.024068 0.599704
26.30509 171.617 -74.0332 0.5721833 0.6190643 -0.5379273 0.0368 0.584439
26.30509 138.356 -54.2357 1 0 -1.311342e-07 0.027478 0.818779
16.65119 164.03 -93.0337 0.5985976 -0.5914016 -0.5403008 0.045746 0.580867
22.43199 164.03 -86.6292 0.5985976 -0.5914016 -0.5403008 0.04273 0.580867
26.30509 138.356 -54.2357 0.5985976 -0.5914016 -0.5403008 0.027478 0.568779
31.19536 385.066 -286 0.8481951 0.360204 -0.3883532 0.136601 0.684938
31.19535 328.304 -338.648 0.8481951 0.360204 -0.3883532 0.161673 0.658508
16.65116 363.779 -337.51 0.8481951 0.360204 -0.3883532 0.160727 0.674784
31.1953 75.87139 -4.090769e-06 0.8956017 0.4448568 -1.17444e-07 0.001942 0.539359
31.19527 75.87139 -249.713 0.8956017 0.4448568 -1.17444e-07 0.119516 0.539359
31.19526 250.407 -329.477 0.8990808 -0.4377818 0.0009438819 0.157072 0.621345
25.46686 238.751 -279.005 0.8990808 -0.4377818 0.0009438819 0.133308 0.616048
16.65114 220.333 -424.061 0.8990808 -0.4377818 0.0009438819 0.201605 0.607897
16.65119 219.303 -69.0558 0.8951938 -0.4456618 -0.003692116 0.034827 0.606689
25.46686 238.751 -279.005 0.8951938 -0.4456618 -0.003692116 0.133308 0.616048
31.19527 249.696 -211.234 0.8951938 -0.4456618 -0.003692116 0.101137 0.621345
3 0 1 2 
3 3 4 5 
3 6 7 8 
3 9 10 11 
3 12 13 14 
3 15 16 17 
3 18 19 20 
3 8 21 6 
3 22 23 24 
3 25 26 27 
3 28 29 30 
3 31 32 33 
3 34 35 36 
3 37 38 39 
3 40 41 42 
3 43 44 45 
3 46 47 48 
3 49 50 51 
3 52 53 54 
3 55 56 57 
3 58 59 60 
3 61 62 63 
3 64 65 66 
3 67 68 69 
3 70 71 72 
3 73 74 75 
3 76 77 78 
3 79 80 81 
3 82 80 83 
3 76 84 77 
3 85 86 87 
3 88 89 90 
3 91 92 93 
3 94 95 96 
3 97 98 99 
3 100 101 102 
3 103 104 105 
3 106 107 108 
3 109 110 111 
3 112 113 114 
3 115 116 117 
3 81 118 79 
3 119 120 121 
3 122 123 124 
3 125 126 127 
3 128 129 130 
3 131 132 133 
3 134 135 136 
3 137 134 136 
3 138 139 140 
3 141 142 143 
3 128 141 143 
3 130 138 141 
3 126 131 127 
3 144 145 146 
3 147 148 149 
3 150 151 118 
3 152 153 154 
3 155 70 72 
3 156 157 158 
3 81 80 82 
3 124 123 79 
3 159 160 161 
3 162 73 163 
3 164 165 166 
3 111 167 168 
3 120 119 169 
3 170 171 172 
3 168 173 174 
3 168 167 173 
3 175 176 177 
3 178 179 180 
3 76 181 84 
3 120 169 182 
3 183 184 185 
3 186 187 188 
3 189 190 191 
3 192 193 194 
3 195 196 197 
3 198 199 200 
3 201 202 203 
3 204 205 206 
3 32 207 33 
3 208 31 33 
3 33 209 208 
3 182 210 211 
3 182 212 213 
3 214 215 216 
3 217 218 219 
3 220 221 222 
3 223 224 225 
3 226 227 228 
3 229 230 231 
3 51 232 49 
3 233 234 235 
3 236 237 238 
3 163 239 240 
3 241 242 243 
3 212 244 213 
3 245 246 247 
3 248 249 250 
3 251 252 253 
3 254 255 256 
3 112 257 258 
3 259 260 261 
3 262 263 113 
3 113 264 114 
3 265 266 267 
3 268 269 270 
3 271 272 273 
3 254 115 117 
3 274 271 254 
3 275 276 277 
3 278 279 280 
3 182 211 76 
3 49 232 281 
3 0 282 1 
3 3 283 4 
3 6 284 7 
3 285 286 287 
3 288 289 290 
3 8 291 21 
3 22 292 23 
3 28 293 29 
3 31 294 32 
3 295 296 297 
3 298 299 300 
3 43 301 44 
3 46 302 47 
3 49 303 50 
3 58 304 59 
3 305 306 307 
3 64 308 65 
3 67 309 68 
3 70 310 71 
3 73 162 74 
3 79 123 80 
3 311 312 313 
3 314 315 316 
3 317 318 319 
3 320 321 322 
3 323 324 325 
3 326 327 328 
3 112 262 113 
3 115 329 116 
3 81 150 118 
3 125 330 126 
3 128 331 129 
3 131 137 132 
3 134 332 135 
3 137 126 134 
3 138 333 139 
3 141 334 142 
3 128 130 141 
3 130 333 138 
3 126 137 131 
3 144 335 145 
3 150 244 151 
3 336 337 338 
3 155 339 70 
3 340 341 342 
3 343 344 345 
3 111 110 167 
3 346 347 348 
3 76 211 181 
3 195 349 196 
3 350 351 352 
3 353 354 355 
3 32 356 207 
3 33 357 209 
3 182 169 210 
3 182 76 212 
3 358 359 360 
3 361 362 363 
3 51 364 232 
3 365 366 367 
3 163 73 239 
3 368 369 370 
3 212 151 244 
3 254 117 255 
3 112 114 257 
3 262 371 263 
3 113 372 264 
3 271 274 272 
3 254 271 115 
3 373 374 375 
3 376 377 378 
